<?xml version="1.0" standalone="no"?>
<!DOCTYPE svg PUBLIC "-//W3C//DTD SVG 20010904//EN"
 "http://www.w3.org/TR/2001/REC-SVG-20010904/DTD/svg10.dtd">
<svg version="1.0" xmlns="http://www.w3.org/2000/svg"
 width="1920.000000pt" height="1920.000000pt" viewBox="0 0 1920.000000 1920.000000"
 preserveAspectRatio="xMidYMid meet">

<g transform="translate(0.000000,1920.000000) scale(0.100000,-0.100000)" stroke="none">
<path fill="#10b981" d="M9070 17819 c-598 -42 -1209 -147 -1732 -298 -864 -250 -1631 -605
-2362 -1093 -677 -452 -1310 -1030 -1823 -1665 -1003 -1241 -1625 -2725 -1802
-4303 -39 -344 -46 -487 -46 -935 1 -459 11 -654 56 -1010 64 -510 182 -1047
338 -1530 l29 -90 34 75 c19 41 198 454 399 917 200 464 368 843 373 843 8 0
1990 -631 2033 -647 8 -3 6 17 -8 64 -11 37 -33 127 -50 198 -189 817 -181
1669 25 2477 229 900 693 1723 1339 2376 714 722 1575 1203 2562 1432 426 99
1019 155 1256 119 l75 -12 803 658 c441 361 801 663 799 670 -2 6 -259 399
-573 872 -549 829 -571 861 -605 868 -134 24 -840 33 -1120 14z m490 -674 c0
-49 2 -55 23 -59 12 -2 48 -9 80 -15 118 -21 221 -86 293 -183 l45 -61 -73
-43 c-40 -24 -78 -43 -84 -44 -6 0 -17 12 -25 26 -38 71 -165 154 -236 154
l-23 0 2 -216 3 -216 112 -37 c62 -21 138 -54 170 -73 115 -71 172 -187 160
-328 -16 -194 -160 -323 -387 -349 l-55 -6 -3 -117 -3 -118 -69 0 -69 0 -3
117 -3 118 -60 7 c-122 15 -244 76 -321 160 -45 49 -79 97 -73 102 13 11 141
86 148 86 4 0 21 -18 36 -41 16 -22 46 -54 67 -71 46 -36 142 -77 181 -78 l27
0 -2 236 -3 236 -85 24 c-183 52 -289 128 -324 231 -24 69 -21 189 6 260 41
110 165 202 302 225 116 19 106 12 106 73 l0 55 70 0 70 0 0 -55z"/>
<path fill="#10b981" d="M9330 16911 c-79 -24 -119 -65 -140 -140 -32 -118 29 -190 208 -245
l22 -7 0 200 0 201 -32 -1 c-18 0 -44 -4 -58 -8z"/>
<path fill="#10b981" d="M9560 16079 l0 -222 45 6 c63 9 139 50 171 93 22 29 29 50 32 100 5
77 -8 113 -56 155 -36 32 -112 70 -164 83 l-28 6 0 -221z"/>
<path fill="#f59e0b" d="M10610 17764 c0 -4 261 -400 580 -879 319 -480 580 -877 580 -882 0
-5 -349 -295 -776 -644 l-777 -634 59 -8 c650 -84 1308 -301 1874 -620 647
-364 1191 -841 1635 -1432 1031 -1372 1319 -3178 766 -4805 -140 -413 -308
-768 -534 -1125 -66 -103 -205 -300 -263 -372 l-26 -32 107 -1022 c58 -563
107 -1024 109 -1026 2 -2 468 -3 1037 -3 l1033 0 34 33 c107 101 476 626 676
960 658 1100 1040 2296 1153 3607 22 258 25 999 5 1245 -106 1298 -457 2448
-1078 3532 -1148 2004 -3076 3440 -5322 3963 -203 47 -374 79 -638 120 -200
31 -234 34 -234 24z m4752 -11151 c-4 -113 -1 -109 -84 -116 -85 -7 -175 -47
-226 -100 l-34 -35 191 -131 c105 -72 195 -131 201 -131 6 0 43 27 82 61 40
33 106 77 147 97 97 48 175 51 264 10 77 -36 159 -115 187 -181 45 -103 35
-238 -25 -357 -14 -27 -25 -54 -25 -60 0 -5 18 -22 40 -36 22 -15 40 -31 40
-35 0 -20 -73 -118 -84 -112 -6 3 -25 17 -43 29 -17 13 -34 24 -37 24 -3 0
-33 -27 -65 -59 -93 -93 -230 -151 -357 -151 -43 0 -44 1 -44 34 0 18 3 60 6
93 l7 60 61 1 c74 1 132 21 191 63 37 27 62 57 53 64 -87 61 -348 235 -352
235 -4 0 -41 -27 -83 -61 -41 -33 -108 -77 -147 -97 -66 -34 -77 -37 -161 -37
-79 0 -96 4 -144 28 -127 67 -201 173 -209 301 -6 92 10 164 53 251 19 38 34
69 32 70 -1 1 -40 28 -87 60 -47 32 -89 62 -94 66 -9 8 63 119 77 119 5 0 49
-28 98 -62 l89 -61 73 70 c108 103 218 150 352 152 l60 1 -3 -67z"/>
<path fill="#f59e0b" d="M14914 6203 c-10 -21 -19 -72 -21 -113 -5 -93 12 -131 81 -177 81
-55 165 -43 279 39 44 32 46 36 30 50 -17 14 -313 216 -340 232 -8 4 -18 -7
-29 -31z"/>
<path fill="#f59e0b" d="M15717 6085 c-43 -16 -148 -87 -144 -97 4 -13 321 -227 328 -222 14
8 49 115 49 147 0 49 -40 118 -85 149 -50 34 -99 41 -148 23z"/>
<path fill="#dc2626" d="M2676 8317 c-13 -28 -200 -459 -416 -956 l-392 -903 27 -64 c15 -35
31 -64 37 -64 5 0 18 -21 30 -47 361 -838 805 -1543 1406 -2233 157 -180 574
-598 747 -749 743 -648 1566 -1148 2478 -1505 550 -216 1228 -394 1830 -481
725 -104 1629 -104 2354 0 692 100 1467 316 2068 577 1102 479 2019 1119 2812
1965 l118 126 -1050 -4 -1050 -4 -102 990 c-56 545 -102 1003 -102 1019 -1 27
-13 18 -154 -125 -853 -862 -1941 -1385 -3172 -1526 -226 -26 -871 -26 -1090
0 -662 77 -1235 246 -1806 533 -1109 555 -1994 1504 -2468 2644 -90 215 -96
227 -133 239 -1182 376 -1926 613 -1936 616 -8 3 -22 -15 -36 -48z m1012
-1142 c76 -23 168 -90 225 -165 27 -36 53 -66 57 -68 5 -2 49 20 99 47 50 28
95 51 101 51 9 0 75 -119 68 -125 -2 -1 -47 -26 -101 -56 -74 -40 -96 -57 -91
-68 46 -110 63 -237 45 -333 -13 -66 -58 -178 -71 -178 -14 0 -150 81 -150 89
0 4 9 26 20 49 35 71 45 144 31 220 -7 37 -15 73 -19 79 -5 7 -74 -25 -207
-98 -110 -60 -204 -110 -210 -112 -5 -2 -1 -38 10 -88 13 -55 20 -120 20 -189
0 -89 -3 -111 -22 -147 -75 -140 -271 -218 -422 -168 -69 23 -159 91 -206 156
-21 30 -41 58 -45 62 -4 4 -27 -4 -51 -18 -24 -13 -47 -25 -51 -25 -10 0 -68
101 -68 117 0 7 19 22 43 34 23 12 44 23 45 24 2 2 -7 32 -20 67 -19 53 -23
82 -23 183 0 117 1 122 35 192 l35 72 78 -47 c42 -26 75 -51 73 -57 -44 -98
-56 -136 -56 -191 0 -51 13 -117 26 -133 2 -3 369 193 382 204 2 1 -7 49 -18
106 -52 250 1 397 172 485 88 45 178 55 266 29z"/>
<path fill="#dc2626" d="M3540 6987 c-55 -18 -106 -76 -119 -136 -10 -47 0 -185 14 -199 6 -6
385 201 385 210 0 20 -80 94 -125 114 -54 25 -99 29 -155 11z"/>
<path fill="#dc2626" d="M3140 6318 c-91 -49 -168 -93 -173 -97 -10 -10 34 -67 74 -97 87 -64
206 -43 267 47 22 31 24 42 19 127 -2 51 -8 97 -13 102 -5 4 -83 -32 -174 -82z"/>
</g>
</svg>
